<?xml version="1.0" ?><svg id="icons" viewBox="0 0 480 480" xmlns="http://www.w3.org/2000/svg" xmlns:xlink="http://www.w3.org/1999/xlink"><defs><style>.cls-1{fill:url(#linear-gradient);}.cls-2{fill:url(#linear-gradient-2);}.cls-3{fill:url(#linear-gradient-3);}.cls-4{fill:url(#linear-gradient-4);}.cls-5{fill:url(#linear-gradient-5);}.cls-6{fill:url(#linear-gradient-6);}.cls-7{fill:url(#linear-gradient-7);}.cls-8{fill:url(#linear-gradient-8);}.cls-9{fill:url(#linear-gradient-9);}.cls-10{fill:#ffa100;}.cls-11{fill:url(#linear-gradient-10);}.cls-12{fill:url(#linear-gradient-11);}.cls-13{fill:url(#linear-gradient-12);}.cls-14{fill:url(#linear-gradient-13);}.cls-15{fill:url(#linear-gradient-14);}.cls-16{fill:url(#linear-gradient-15);}.cls-17{fill:#ff79e5;}.cls-18{fill:url(#linear-gradient-16);}.cls-19{fill:url(#linear-gradient-17);}.cls-20{fill:url(#linear-gradient-18);}.cls-21{fill:url(#linear-gradient-19);}.cls-22{fill:url(#linear-gradient-20);}.cls-23{fill:url(#linear-gradient-21);}.cls-24{fill:url(#linear-gradient-22);}.cls-25{fill:url(#linear-gradient-23);}.cls-26{fill:url(#linear-gradient-24);}.cls-27{fill:url(#linear-gradient-25);}.cls-28{fill:url(#linear-gradient-26);}.cls-29{fill:url(#linear-gradient-27);}.cls-30{fill:url(#linear-gradient-28);}.cls-31{fill:url(#linear-gradient-29);}.cls-32{fill:url(#linear-gradient-30);}</style><linearGradient gradientUnits="userSpaceOnUse" id="linear-gradient" x1="239.96" x2="239.96" y1="308.72" y2="171.28"><stop offset="0" stop-color="#f95200"/><stop offset="0.33" stop-color="#ffa100"/><stop offset="0.67" stop-color="#ff79e5"/><stop offset="1" stop-color="#4333e5"/></linearGradient><linearGradient gradientUnits="userSpaceOnUse" id="linear-gradient-2" x1="239.96" x2="239.96" y1="166.97" y2="90"><stop offset="0" stop-color="#ff79e5"/><stop offset="1" stop-color="#4333e5"/></linearGradient><linearGradient gradientUnits="userSpaceOnUse" id="linear-gradient-3" x1="239.96" x2="239.96" y1="390" y2="313.02"><stop offset="0" stop-color="#ffa100"/><stop offset="1" stop-color="#f95200"/></linearGradient><linearGradient gradientUnits="userSpaceOnUse" id="linear-gradient-4" x1="128.45" x2="128.45" y1="268.03" y2="211.97"><stop offset="0" stop-color="#ffa100"/><stop offset="1" stop-color="#ff79e5"/></linearGradient><linearGradient id="linear-gradient-5" x1="164.89" x2="164.89" xlink:href="#linear-gradient-2" y1="196.57" y2="133.28"/><linearGradient id="linear-gradient-6" x1="315.1" x2="315.1" xlink:href="#linear-gradient-3" y1="346.72" y2="283.43"/><linearGradient id="linear-gradient-7" x1="315.05" x2="315.05" xlink:href="#linear-gradient-2" y1="196.57" y2="133.24"/><linearGradient id="linear-gradient-8" x1="239.96" x2="239.96" xlink:href="#linear-gradient-2" y1="138.34" y2="109.7"/><linearGradient id="linear-gradient-9" x1="239.96" x2="239.96" xlink:href="#linear-gradient-3" y1="370.3" y2="341.66"/><linearGradient id="linear-gradient-10" x1="123.99" x2="123.99" xlink:href="#linear-gradient-4" y1="250.72" y2="229.28"/><linearGradient id="linear-gradient-11" x1="355.94" x2="355.94" xlink:href="#linear-gradient-4" y1="250.72" y2="229.28"/><linearGradient id="linear-gradient-12" x1="158.6" x2="158.6" xlink:href="#linear-gradient-2" y1="172.05" y2="145.35"/><linearGradient id="linear-gradient-13" x1="321.32" x2="321.32" xlink:href="#linear-gradient-3" y1="334.65" y2="307.95"/><linearGradient id="linear-gradient-14" x1="158.67" x2="158.67" xlink:href="#linear-gradient-3" y1="334.77" y2="307.95"/><linearGradient id="linear-gradient-15" x1="321.26" x2="321.26" xlink:href="#linear-gradient-2" y1="172.05" y2="145.23"/><linearGradient id="linear-gradient-16" x1="192.81" x2="192.81" xlink:href="#linear-gradient-4" y1="250.72" y2="229.28"/><linearGradient id="linear-gradient-17" x1="287.15" x2="287.15" xlink:href="#linear-gradient-4" y1="250.72" y2="229.28"/><linearGradient id="linear-gradient-18" x1="239.96" x2="239.96" xlink:href="#linear-gradient" y1="257.81" y2="218.57"/><linearGradient id="linear-gradient-19" x1="239.96" x2="239.96" xlink:href="#linear-gradient-3" y1="302.14" y2="272.69"/><linearGradient id="linear-gradient-20" x1="239.96" x2="239.96" xlink:href="#linear-gradient-2" y1="207.31" y2="178.11"/><linearGradient id="linear-gradient-21" x1="196.2" x2="196.2" xlink:href="#linear-gradient-2" y1="147.49" y2="118.71"/><linearGradient id="linear-gradient-22" x1="283.55" x2="283.55" xlink:href="#linear-gradient-3" y1="361.29" y2="332.51"/><linearGradient id="linear-gradient-23" x1="133.06" x2="133.06" xlink:href="#linear-gradient-3" y1="295.83" y2="271.7"/><linearGradient id="linear-gradient-24" x1="346.86" x2="346.86" xlink:href="#linear-gradient-2" y1="208.3" y2="184.52"/><linearGradient id="linear-gradient-25" x1="133.01" x2="133.01" xlink:href="#linear-gradient-2" y1="208.3" y2="184.43"/><linearGradient id="linear-gradient-26" x1="346.79" x2="346.79" xlink:href="#linear-gradient-3" y1="295.82" y2="271.7"/><linearGradient id="linear-gradient-27" x1="283.72" x2="283.72" xlink:href="#linear-gradient-2" y1="147.49" y2="118.85"/><linearGradient id="linear-gradient-28" x1="196.33" x2="196.33" xlink:href="#linear-gradient-3" y1="361.4" y2="332.51"/><linearGradient id="linear-gradient-29" x1="351.51" x2="351.51" xlink:href="#linear-gradient-4" y1="268.03" y2="211.97"/><linearGradient id="linear-gradient-30" x1="164.89" x2="164.89" xlink:href="#linear-gradient-3" y1="346.77" y2="283.43"/></defs><title/><path class="cls-1" d="M240,171.28A68.72,68.72,0,1,0,308.68,240,68.8,68.8,0,0,0,240,171.28Zm0,133A64.28,64.28,0,1,1,304.25,240,64.36,64.36,0,0,1,240,304.28Z"/><path class="cls-2" d="M240,167a28.06,28.06,0,0,0,28-28c0-6.35-4.46-16.42-13.26-29.92-6.43-9.87-13-18.11-13-18.19l-.07-.08-.21-.21-.14-.11-.25-.16-.14-.08a2.2,2.2,0,0,0-.32-.11l-.12,0A2.21,2.21,0,0,0,240,90h0a2.22,2.22,0,0,0-.46.06l-.08,0a2.21,2.21,0,0,0-.36.13l-.14.08-.26.16-.14.11-.21.21-.07.07c-.07.08-6.59,8.32-13,18.19-8.8,13.51-13.26,23.57-13.26,29.92A28.06,28.06,0,0,0,240,167Zm0-4.46a4.36,4.36,0,1,1,4.36-4.36A4.36,4.36,0,0,1,240,162.52Zm-2.14-63.85.07,5.9a2.22,2.22,0,0,0,2.22,2.19h0a2.22,2.22,0,0,0,2.19-2.24l-.07-5.64c8.3,11.22,21.3,30.76,21.3,40.07A23.63,23.63,0,0,1,248.27,161a8.68,8.68,0,0,0-.8-7.42,6.5,6.5,0,0,0,4.07-1.71c1.92-1.92,1.92-4.78,1.91-10.47v-1.11a2.22,2.22,0,0,0-4.43,0v1.11c0,3.75,0,6.71-.61,7.33s-3.57.61-7.33.61h-2.22c-3.76,0-6.71,0-7.33-.61s-.62-3.58-.61-7.33v-1.11a2.22,2.22,0,1,0-4.43,0v1.11c0,5.69,0,8.55,1.91,10.47a6.49,6.49,0,0,0,4.08,1.71,8.68,8.68,0,0,0-.8,7.43,23.63,23.63,0,0,1-15.29-22.08C216.37,129.57,229.53,109.85,237.82,98.67Z"/><path class="cls-3" d="M240,313a28.06,28.06,0,0,0-28,28c0,6.35,4.46,16.42,13.26,29.92,6.43,9.87,13,18.11,13,18.19A2.22,2.22,0,0,0,240,390h.17a2.21,2.21,0,0,0,2-1.45c1.61-2.07,7.1-9.22,12.54-17.57,8.8-13.51,13.26-23.57,13.26-29.92A28.06,28.06,0,0,0,240,313Zm0,4.65a4.36,4.36,0,1,1-4.36,4.36A4.36,4.36,0,0,1,240,317.68Zm2.28,63.46-.07-5.71a2.22,2.22,0,0,0-2.22-2.19h0a2.22,2.22,0,0,0-2.19,2.24l.07,5.84c-8.29-11.18-21.44-30.9-21.44-40.27a23.63,23.63,0,0,1,15.37-22.11,8.68,8.68,0,0,0,.72,7.65,6.5,6.5,0,0,0-4.08,1.71c-1.92,1.92-1.92,4.78-1.91,10.47v1.11a2.22,2.22,0,1,0,4.43,0v-1.11c0-3.75,0-6.71.61-7.33s3.58-.61,7.33-.61h2.22c3.75,0,6.71,0,7.33.61s.62,3.58.61,7.33v1.11a2.22,2.22,0,0,0,4.43,0v-1.11c0-5.69,0-8.55-1.91-10.47a6.5,6.5,0,0,0-4.08-1.7,8.68,8.68,0,0,0,.72-7.66,23.63,23.63,0,0,1,15.37,22.11C263.55,350.37,250.55,369.93,242.25,381.14Z"/><path class="cls-4" d="M166.94,240a28.06,28.06,0,0,0-28-28c-6.35,0-16.42,4.46-29.92,13.26-9.87,6.43-18.11,13-18.19,13a2.33,2.33,0,0,0,.25,3.67c1.39,1.09,9,7,17.94,12.83,13.51,8.8,23.57,13.26,29.92,13.26A28.06,28.06,0,0,0,166.94,240Zm-4.55.1a4.36,4.36,0,1,1-4.36-4.36A4.36,4.36,0,0,1,162.38,240.1Zm-63.66,2.12,5.88-.07a2.22,2.22,0,0,0,0-4.43h0l-5.82.07c11.2-8.3,30.82-21.37,40.18-21.37a23.63,23.63,0,0,1,22.14,15.45,8.68,8.68,0,0,0-7.58.74,6.51,6.51,0,0,0-1.71-4.08c-1.92-1.92-4.8-1.92-10.47-1.91h-1.11a2.22,2.22,0,1,0,0,4.43h1.11c3.77,0,6.71,0,7.33.61s.62,3.58.61,7.33v2.22c0,3.75,0,6.71-.61,7.33s-3.57.61-7.33.61h-1.11a2.22,2.22,0,1,0,0,4.43h2c5.07,0,7.72-.1,9.53-1.91a6.51,6.51,0,0,0,1.71-4.08,8.68,8.68,0,0,0,7.49.77,23.63,23.63,0,0,1-22,15.22C129.56,263.59,109.93,250.51,98.73,242.21Z"/><path class="cls-5" d="M148.69,188.36a28,28,0,1,0,39.63-39.63c-10.51-10.51-50.9-15.23-52.61-15.43a2.22,2.22,0,0,0-2.46,2.45C133.46,137.47,138.19,177.86,148.69,188.36Zm36.41-3.12a4.36,4.36,0,0,1-6.17-6.15h0a4.36,4.36,0,0,1,6.15,6.17Zm-39.25-42.66-4.09-4c13.8,2.06,36.84,6.69,43.43,13.28a23.61,23.61,0,0,1,4.75,26.49,8.7,8.7,0,0,0-5.83-4.72,6.52,6.52,0,0,0,1.67-4.08c0-2.72-2-4.73-6.05-8.76l-.78-.78a2.22,2.22,0,0,0-3.14,3.14l.79.79c2.65,2.65,4.75,4.74,4.75,5.62s-2.1,3-4.75,5.62l-.78.78h0l-.78.78c-2.65,2.65-4.74,4.75-5.62,4.75s-3-2.1-5.62-4.75l-.79-.79a2.22,2.22,0,0,0-3.14,3.14l.78.78c4,4,6,6.05,8.76,6.05a6.52,6.52,0,0,0,4.09-1.68,8.7,8.7,0,0,0,4.66,5.81,23.61,23.61,0,0,1-26.33-4.82c-6.63-6.63-11.27-29.84-13.31-43.61l4.24,4.14a2.22,2.22,0,1,0,3.1-3.17Z"/><path class="cls-6" d="M331.23,291.64a28,28,0,1,0-39.63,39.63c10.51,10.51,50.9,15.23,52.61,15.43h.25a2.27,2.27,0,0,0,2.11-3.23C345.85,337.59,341.08,301.48,331.23,291.64ZM294.82,295a4.36,4.36,0,0,1,6.16,6.16h0a4.36,4.36,0,0,1-6.16,0h0A4.36,4.36,0,0,1,294.82,295Zm39.4,42.46,4.12,4c-13.77-2-37-6.69-43.6-13.31a23.61,23.61,0,0,1-4.79-26.39,8.73,8.73,0,0,0,1.74,2.5h0a8.72,8.72,0,0,0,4.14,2.31,6.52,6.52,0,0,0-1.68,4.09c0,2.72,2,4.73,6.05,8.76l.78.78a2.22,2.22,0,1,0,3.14-3.14l-.79-.79c-2.65-2.65-4.75-4.74-4.75-5.62s2.1-3,4.75-5.62l.78-.78h0l.78-.78c2.65-2.65,4.74-4.75,5.62-4.75s3,2.1,5.62,4.75l.79.79a2.22,2.22,0,1,0,3.14-3.14l-.78-.78c-4-4-6-6.05-8.76-6.05a6.52,6.52,0,0,0-4.09,1.68,8.67,8.67,0,0,0-4.87-5.91,23.54,23.54,0,0,1,26.54,4.72c6.6,6.6,11.23,29.66,13.29,43.45l-4.07-4a2.22,2.22,0,0,0-3.1,3.17Z"/><path class="cls-7" d="M291.6,188.36a28,28,0,0,0,39.63,0c10.29-10.29,15-49.26,15.41-52.45a2.2,2.2,0,0,0-2.82-2.57c-4.47.53-42.13,5.29-52.23,15.38A28.06,28.06,0,0,0,291.6,188.36Zm3.22-3.12a4.36,4.36,0,0,1,6.15-6.17h0a4.36,4.36,0,0,1-6.17,6.15Zm43.53-46.69-4.07,4.17a2.22,2.22,0,1,0,3.17,3.1l3.93-4c-2.06,13.8-6.69,36.83-13.28,43.43A23.61,23.61,0,0,1,301.77,190a8.74,8.74,0,0,0,2.35-1.67h0a8.73,8.73,0,0,0,2.31-4.14,6.52,6.52,0,0,0,4.09,1.68c2.72,0,4.74-2,8.76-6.05l.78-.78a2.22,2.22,0,0,0-3.14-3.14l-.79.79c-2.65,2.65-4.74,4.75-5.62,4.75s-3-2.1-5.62-4.75l-.78-.78h0l-.78-.78c-2.65-2.65-4.75-4.74-4.75-5.62s2.1-3,4.75-5.62l.79-.79A2.22,2.22,0,0,0,301,160l-.78.78c-4,4-6.05,6-6.05,8.76a6.53,6.53,0,0,0,1.68,4.09,8.68,8.68,0,0,0-5.83,4.72,23.61,23.61,0,0,1,4.75-26.49C301.36,145.24,324.58,140.6,338.35,138.55Z"/><path class="cls-8" d="M238,138.34a8.74,8.74,0,0,0,1.93-.24,8.76,8.76,0,0,0,10.41-10.82,2.22,2.22,0,0,0-1.57-1.57,8.4,8.4,0,0,0-3.68-.18,8.87,8.87,0,0,0,1-.82,8.79,8.79,0,0,0,0-12.43h0a8.79,8.79,0,1,0-12.43,12.43,8.89,8.89,0,0,0,.92.79,8.35,8.35,0,0,0-3.46.21,2.22,2.22,0,0,0-1.57,1.57A8.77,8.77,0,0,0,238,138.34Zm1.93-10a8.86,8.86,0,0,0-1.29-1.19,8.11,8.11,0,0,0,2.61,0A8.85,8.85,0,0,0,240,128.38Zm6.27,1.47a4.36,4.36,0,0,1-4,4A4.36,4.36,0,0,1,246.24,129.85Zm-9.44-14.44a4.36,4.36,0,0,1,6.16,0h0a4.36,4.36,0,1,1-6.16,0Zm.94,18.48a4.36,4.36,0,0,1-4-4A4.36,4.36,0,0,1,237.74,133.9Z"/><path class="cls-9" d="M241.89,341.66a8.75,8.75,0,0,0-1.93.24,8.76,8.76,0,0,0-10.41,10.83,2.22,2.22,0,0,0,1.57,1.57,8.4,8.4,0,0,0,3.68.18,8.89,8.89,0,0,0-1,.82,8.79,8.79,0,0,0,0,12.43h0a8.79,8.79,0,1,0,12.43-12.43,8.88,8.88,0,0,0-.92-.79,8.35,8.35,0,0,0,3.46-.21,2.22,2.22,0,0,0,1.57-1.57,8.77,8.77,0,0,0-8.49-11.06Zm-1.93,10a8.86,8.86,0,0,0,1.29,1.19,8.11,8.11,0,0,0-2.61,0A8.85,8.85,0,0,0,240,351.62Zm-6.27-1.47a4.36,4.36,0,0,1,4-4A4.36,4.36,0,0,1,233.69,350.15Zm9.44,14.44a4.36,4.36,0,0,1-6.16,0h0a4.36,4.36,0,1,1,6.16,0Zm-.94-18.48a4.36,4.36,0,0,1,4,4A4.36,4.36,0,0,1,242.19,346.1Z"/><path class="cls-10" d="M277.18,268.3a8.78,8.78,0,0,0-1.21.09,8.36,8.36,0,0,0,2.3-2.6,2.22,2.22,0,0,0,0-2.22,8.72,8.72,0,0,0-15-.29,8.76,8.76,0,0,0,.29,15,2.22,2.22,0,0,0,2.22,0,8.81,8.81,0,0,0,1.82-1.39h0a8.9,8.9,0,0,0,.91-1.08,8.79,8.79,0,1,0,8.69-7.53Zm-12.53,5.25a4.36,4.36,0,0,1,0-5.72,4.36,4.36,0,0,1,0,5.72Zm3.15-8.87a4.36,4.36,0,0,1,5.72,0A4.36,4.36,0,0,1,267.8,264.68Zm2.25,7.28a8.89,8.89,0,0,0,.1-1.27c0-.18,0-.36,0-.54l.53,0a8.85,8.85,0,0,0,1.22-.09A8.85,8.85,0,0,0,270.05,272Zm7.12,9.49a4.36,4.36,0,1,1,4.36-4.36A4.36,4.36,0,0,1,277.18,281.45Z"/><path class="cls-11" d="M138.07,240a8.7,8.7,0,0,0-8.55-10.72,8.82,8.82,0,0,0-2.27.3,2.22,2.22,0,0,0-1.57,1.57,8.39,8.39,0,0,0-.18,3.67,8.86,8.86,0,0,0-.82-1,8.79,8.79,0,0,0-12.43,0h0a8.79,8.79,0,0,0,12.43,12.43,8.85,8.85,0,0,0,.79-.92,8.34,8.34,0,0,0,.21,3.46,2.22,2.22,0,0,0,1.57,1.57,8.77,8.77,0,0,0,11.06-8.49A8.73,8.73,0,0,0,138.07,240Zm-16.53,3.17a4.36,4.36,0,1,1-6.16-6.16h0a4.36,4.36,0,1,1,6.16,6.16Zm5.62-1.88a8.1,8.1,0,0,0,0-2.61,8.85,8.85,0,0,0,1.22,1.33A8.85,8.85,0,0,0,127.16,241.28Zm2.66,5a4.36,4.36,0,0,1,4-4A4.36,4.36,0,0,1,129.82,246.27Zm0-12.54a4.36,4.36,0,0,1,4,4A4.36,4.36,0,0,1,129.82,233.73Z"/><path class="cls-12" d="M361.47,231.12a8.73,8.73,0,0,0-6.22,2.57,8.85,8.85,0,0,0-.79.92,8.35,8.35,0,0,0-.21-3.46,2.22,2.22,0,0,0-1.57-1.57A8.72,8.72,0,0,0,341.86,240a8.76,8.76,0,0,0,10.82,10.41,2.22,2.22,0,0,0,1.57-1.57,8.4,8.4,0,0,0,.18-3.67,8.88,8.88,0,0,0,.82,1,8.79,8.79,0,0,0,12.43,0h0a8.79,8.79,0,0,0-6.22-15Zm-15.4,11.11a4.36,4.36,0,0,1,4,4A4.36,4.36,0,0,1,346.07,242.23Zm0-4.46a4.36,4.36,0,0,1,4-4A4.36,4.36,0,0,1,346.07,237.77Zm5.51,2.23a8.85,8.85,0,0,0,1.19-1.28,8.12,8.12,0,0,0,0,2.61A8.84,8.84,0,0,0,351.58,240Zm13,3a4.36,4.36,0,1,1,0-6.16A4.33,4.33,0,0,1,364.55,243Z"/><path class="cls-13" d="M154,162.93a8.78,8.78,0,0,0,1.21-.09,8.35,8.35,0,0,0-2.3,2.6,2.22,2.22,0,0,0,0,2.22,8.72,8.72,0,0,0,15,.29,8.71,8.71,0,0,0,1.53-1.19,8.77,8.77,0,0,0-1.82-13.82,2.22,2.22,0,0,0-2.22,0,8.8,8.8,0,0,0-1.82,1.39h0a8.87,8.87,0,0,0-.91,1.08,8.79,8.79,0,1,0-8.69,7.53Zm12.53-5.25a4.36,4.36,0,0,1,0,5.72,4.36,4.36,0,0,1,0-5.72Zm-3.15,8.87a4.36,4.36,0,0,1-5.72,0A4.37,4.37,0,0,1,163.36,166.55Zm-2.25-7.28a8.89,8.89,0,0,0-.1,1.27c0,.18,0,.36,0,.54a8.85,8.85,0,0,0-1.75.07A8.85,8.85,0,0,0,161.11,159.27ZM154,149.79a4.36,4.36,0,1,1-4.36,4.36A4.36,4.36,0,0,1,154,149.79Z"/><path class="cls-14" d="M325.94,317.07a8.78,8.78,0,0,0-1.21.09,8.36,8.36,0,0,0,2.3-2.6,2.22,2.22,0,0,0,0-2.22,8.72,8.72,0,0,0-15-.29,8.76,8.76,0,0,0,.29,15,2.22,2.22,0,0,0,2.22,0,8.79,8.79,0,0,0,1.82-1.39,8.89,8.89,0,0,0,.91-1.08,8.79,8.79,0,1,0,8.69-7.53Zm-12.53,5.25a4.36,4.36,0,0,1,0-5.72,4.36,4.36,0,0,1,0,5.72Zm3.15-8.87a4.37,4.37,0,0,1,5.72,0A4.36,4.36,0,0,1,316.56,313.45Zm2.25,7.28a8.86,8.86,0,0,0,.1-1.27c0-.18,0-.36,0-.54l.53,0a8.87,8.87,0,0,0,1.22-.1A8.85,8.85,0,0,0,318.82,320.73Zm7.12,9.49a4.36,4.36,0,1,1,4.36-4.36A4.36,4.36,0,0,1,325.94,330.21Z"/><path class="cls-15" d="M167.92,312a8.76,8.76,0,0,0-15,.29,2.22,2.22,0,0,0,0,2.22,8.4,8.4,0,0,0,2.47,2.73,8.86,8.86,0,1,0,7.43,7.48,8.9,8.9,0,0,0,.78.91h0a8.8,8.8,0,0,0,1.82,1.39,2.22,2.22,0,0,0,2.22,0,8.72,8.72,0,0,0,.29-15Zm-13.81,18.28a4.36,4.36,0,1,1,4.36-4.36A4.36,4.36,0,0,1,154.11,330.33Zm5.12-11.49a8.86,8.86,0,0,0,1.28.1l.53,0c0,.18,0,.36,0,.54a8.9,8.9,0,0,0,.09,1.22A8.85,8.85,0,0,0,159.23,318.85Zm-1.58-5.4a4.36,4.36,0,0,1,5.72,0A4.36,4.36,0,0,1,157.64,313.45Zm8.87,8.87a4.36,4.36,0,0,1,0-5.72A4.36,4.36,0,0,1,166.51,322.32Z"/><path class="cls-16" d="M312,168a8.76,8.76,0,0,0,15-.29,2.22,2.22,0,0,0,0-2.22,8.41,8.41,0,0,0-2.47-2.73,8.87,8.87,0,1,0-7.43-7.48,8.9,8.9,0,0,0-.78-.9,8.79,8.79,0,0,0-1.82-1.39,2.22,2.22,0,0,0-2.22,0,8.72,8.72,0,0,0-.29,15Zm13.81-18.28a4.36,4.36,0,1,1-4.36,4.36A4.36,4.36,0,0,1,325.82,149.67Zm-5.12,11.49a8.85,8.85,0,0,0-1.81-.08c0-.18,0-.36,0-.54a8.9,8.9,0,0,0-.09-1.22A8.85,8.85,0,0,0,320.7,161.15Zm1.58,5.4a4.36,4.36,0,0,1-5.72,0A4.37,4.37,0,0,1,322.28,166.55Zm-8.87-8.87a4.36,4.36,0,0,1,0,5.72A4.36,4.36,0,0,1,313.41,157.68Z"/><path class="cls-17" d="M202.75,211.7a8.78,8.78,0,0,0,1.21-.09,8.36,8.36,0,0,0-2.3,2.6,2.22,2.22,0,0,0,0,2.22,8.72,8.72,0,0,0,15,.29,8.76,8.76,0,0,0-.29-15,2.22,2.22,0,0,0-2.22,0,8.78,8.78,0,0,0-1.82,1.39h0a8.79,8.79,0,0,0-.91,1.09,8.79,8.79,0,1,0-8.69,7.52Zm12.53-5.25a4.36,4.36,0,0,1,0,5.72A4.36,4.36,0,0,1,215.28,206.45Zm-3.15,8.87a4.36,4.36,0,0,1-5.72,0A4.37,4.37,0,0,1,212.13,215.32ZM209.88,208a8.86,8.86,0,0,0-.08,1.81,8.85,8.85,0,0,0-1.76.07A8.85,8.85,0,0,0,209.88,208Zm-7.13-9.48a4.36,4.36,0,1,1-4.36,4.36A4.36,4.36,0,0,1,202.75,198.55Z"/><path class="cls-17" d="M277.05,194a8.73,8.73,0,0,0-8.7,10,8.88,8.88,0,0,0-.78-.91h0a8.8,8.8,0,0,0-1.82-1.39,2.22,2.22,0,0,0-2.22,0,8.72,8.72,0,0,0-.29,15,8.76,8.76,0,0,0,15-.29,2.22,2.22,0,0,0,0-2.22,8.41,8.41,0,0,0-2.47-2.73A8.79,8.79,0,1,0,277.05,194Zm-12.4,18.17a4.36,4.36,0,0,1,0-5.72,4.36,4.36,0,0,1,0,5.72Zm7.28-2.25a8.85,8.85,0,0,0-1.81-.08c0-.18,0-.36,0-.53a8.88,8.88,0,0,0-.09-1.22A8.85,8.85,0,0,0,271.93,209.92Zm-4.13,5.4a4.36,4.36,0,0,1,5.72,0A4.36,4.36,0,0,1,267.8,215.32Zm9.26-8.17a4.36,4.36,0,1,1,4.36-4.36A4.36,4.36,0,0,1,277.05,207.14Z"/><path class="cls-10" d="M216.68,263.28a8.76,8.76,0,0,0-15,.29,2.22,2.22,0,0,0,0,2.22,8.41,8.41,0,0,0,2.47,2.73,8.87,8.87,0,1,0,7.43,7.48,8.78,8.78,0,0,0,.78.91h0a8.78,8.78,0,0,0,1.82,1.39,2.22,2.22,0,0,0,2.22,0,8.82,8.82,0,0,0,1.82-1.39,8.71,8.71,0,0,0-1.53-13.63Zm-13.81,18.29a4.36,4.36,0,1,1,4.36-4.36A4.36,4.36,0,0,1,202.87,281.57ZM208,270.08a8.86,8.86,0,0,0,1.28.1l.54,0a8.85,8.85,0,0,0,.07,1.76A8.85,8.85,0,0,0,208,270.08Zm-1.58-5.4a4.36,4.36,0,0,1,5.72,0A4.37,4.37,0,0,1,206.41,264.68Zm8.87,8.87a4.36,4.36,0,0,1,0-5.72,4.36,4.36,0,0,1,0,5.72Z"/><path class="cls-18" d="M194.36,246.83a8.83,8.83,0,0,0,.29,2,2.22,2.22,0,0,0,1.57,1.57A8.72,8.72,0,0,0,207,240a8.76,8.76,0,0,0-10.82-10.41,2.22,2.22,0,0,0-1.57,1.57,8.82,8.82,0,0,0-.3,2.16h-.11l-3.94.68-2.79-2.86a2.22,2.22,0,0,0-3.78,1.23l-.57,4-3.58,1.77a2.22,2.22,0,0,0,0,4l3.58,1.77.57,4a2.22,2.22,0,0,0,3.78,1.23l2.79-2.86,3.94.68Zm8.47-9.06a4.36,4.36,0,0,1-4-4A4.36,4.36,0,0,1,202.83,237.77Zm0,4.46a4.36,4.36,0,0,1-4,4A4.36,4.36,0,0,1,202.83,242.23Zm-7.1-4.08a8.84,8.84,0,0,0,1.58,1.85,8.84,8.84,0,0,0-1.63,1.92l-1-1.84Zm-5.48,3,.31.59-.66-.11a2.22,2.22,0,0,0-2,.64l-.47.48-.1-.66a2.22,2.22,0,0,0-1.21-1.67l-.6-.3.6-.3a2.22,2.22,0,0,0,1.21-1.67l.1-.66.47.48a2.22,2.22,0,0,0,2,.64l.66-.11-.31.59A2.22,2.22,0,0,0,190.25,241.11Z"/><path class="cls-19" d="M285.58,233.32a8.8,8.8,0,0,0-.3-2.16,2.22,2.22,0,0,0-1.57-1.57A8.72,8.72,0,0,0,272.89,240a8.76,8.76,0,0,0,10.82,10.41,2.22,2.22,0,0,0,1.57-1.57,8.83,8.83,0,0,0,.29-2h.17l3.94-.68,2.79,2.86a2.22,2.22,0,0,0,3.78-1.23l.57-4,3.58-1.77a2.22,2.22,0,0,0,0-4l-3.58-1.77-.57-4a2.22,2.22,0,0,0-3.78-1.23L289.68,234l-3.94-.68Zm-8.48,8.91a4.36,4.36,0,0,1,4,4A4.36,4.36,0,0,1,277.1,242.23Zm0-4.46a4.36,4.36,0,0,1,4-4A4.36,4.36,0,0,1,277.1,237.77Zm7.17,4.19a8.83,8.83,0,0,0-1.66-2,8.83,8.83,0,0,0,1.61-1.9l1,2Zm5.46-2.92-.31-.59.66.11a2.23,2.23,0,0,0,2-.64l.47-.48.1.66a2.22,2.22,0,0,0,1.21,1.67l.6.3-.6.3A2.22,2.22,0,0,0,292.6,242l-.1.66-.47-.48a2.22,2.22,0,0,0-2-.64l-.66.11.31-.59A2.22,2.22,0,0,0,289.73,239Z"/><path class="cls-20" d="M251.5,243.78l8.31-8.1a2.22,2.22,0,0,0-1.23-3.78l-11.49-1.67L242,219.81a2.22,2.22,0,0,0-4,0l-5.14,10.41-11.49,1.67a2.22,2.22,0,0,0-1.23,3.78l8.31,8.1-2,11.44a2.22,2.22,0,0,0,3.22,2.34l10.28-5.4,10.28,5.4a2.22,2.22,0,0,0,3.22-2.34Zm-3.93-2.36a2.22,2.22,0,0,0-.64,2l1.4,8.16L241,247.69a2.22,2.22,0,0,0-2.06,0l-7.33,3.86,1.4-8.16a2.22,2.22,0,0,0-.64-2l-5.93-5.78,8.2-1.19a2.22,2.22,0,0,0,1.67-1.21L240,225.8l3.67,7.43a2.22,2.22,0,0,0,1.67,1.21l8.2,1.19Z"/><path class="cls-21" d="M241.89,272.69a8.75,8.75,0,0,0-1.93.24,8.76,8.76,0,0,0-10.41,10.83,2.22,2.22,0,0,0,1.57,1.57,8.86,8.86,0,0,0,1.89.28l.71,4.11-3,3a2.22,2.22,0,0,0,1.23,3.78l4.22.61L238,300.9a2.22,2.22,0,0,0,4,0l1.89-3.82,4.22-.61a2.22,2.22,0,0,0,1.23-3.78l-3-3,.71-4.12a8.87,8.87,0,0,0,1.84-.28,2.22,2.22,0,0,0,1.57-1.57,8.77,8.77,0,0,0-8.49-11.06Zm-1.93,10a8.85,8.85,0,0,0,1.82,1.56l-1.79.94-1.82-1A8.84,8.84,0,0,0,240,282.65Zm-6.27-1.47a4.36,4.36,0,0,1,4-4A4.36,4.36,0,0,1,233.69,281.18Zm8.38,11.68a2.22,2.22,0,0,0-1.67,1.21l-.41.84-.41-.84a2.22,2.22,0,0,0-1.67-1.21l-.92-.13.67-.65a2.22,2.22,0,0,0,.64-2l-.16-.92.83.43a2.22,2.22,0,0,0,2.06,0l.83-.43-.16.92a2.22,2.22,0,0,0,.64,2l.67.65Zm.12-15.72a4.36,4.36,0,0,1,4,4A4.36,4.36,0,0,1,242.19,277.14Z"/><path class="cls-22" d="M238,207.31a8.74,8.74,0,0,0,1.93-.24,8.76,8.76,0,0,0,10.41-10.82,2.22,2.22,0,0,0-1.57-1.57,8.86,8.86,0,0,0-1.89-.28l-.66-3.87,3-3a2.22,2.22,0,0,0-1.23-3.78l-4.22-.61L242,179.35a2.22,2.22,0,0,0-4,0l-1.89,3.82-4.22.61a2.22,2.22,0,0,0-1.23,3.78l3,3-.66,3.86a8.85,8.85,0,0,0-1.93.28,2.22,2.22,0,0,0-1.57,1.57A8.77,8.77,0,0,0,238,207.31Zm1.93-10a8.84,8.84,0,0,0-1.59-1.41l1.61-.85,1.58.83A8.86,8.86,0,0,0,240,197.35Zm6.27,1.47a4.36,4.36,0,0,1-4,4A4.36,4.36,0,0,1,246.24,198.82Zm-8.33-11.43a2.22,2.22,0,0,0,1.67-1.21l.41-.84.41.84a2.22,2.22,0,0,0,1.67,1.21l.92.13-.67.65a2.22,2.22,0,0,0-.64,2l.16.92-.83-.43a2.22,2.22,0,0,0-2.06,0l-.83.43.16-.92a2.22,2.22,0,0,0-.64-2l-.67-.65Zm-.17,15.48a4.36,4.36,0,0,1-4-4A4.36,4.36,0,0,1,237.74,202.86Z"/><path class="cls-23" d="M185.53,130.23l3.37,1.35.8,3.54a2.2,2.2,0,0,0,.91,1.32c-.19.07-.39.13-.58.21h0a8.81,8.81,0,0,0-2,1.15,2.22,2.22,0,0,0-.85,2,8.72,8.72,0,0,0,13.76,6,8.76,8.76,0,0,0,5.48-14,2.22,2.22,0,0,0-2-.85,8.78,8.78,0,0,0-2.21.59h0l-.3.14a2.2,2.2,0,0,0-.29-1.57l-1.94-3.07,1.43-3.34a2.22,2.22,0,0,0-2.58-3l-3.52.89-2.73-2.39a2.22,2.22,0,0,0-3.67,1.52l-.24,3.62-3.12,1.86a2.22,2.22,0,0,0,.31,4Zm18.08,5.61a4.36,4.36,0,0,1-2.19,5.28A4.36,4.36,0,0,1,203.61,135.84ZM192,140.64a4.36,4.36,0,0,1,5.28,2.19A4.36,4.36,0,0,1,192,140.64Zm7.27-7.07a8.82,8.82,0,0,0-2,3.31l-.49-.23a8.78,8.78,0,0,0-3.14-.66l2.27-2.73Zm-7.68-5.95a2.22,2.22,0,0,0,1.08-1.76l0-.3.23.2a2.22,2.22,0,0,0,2,.48l.3-.08-.12.28a2.22,2.22,0,0,0,.16,2.06l.16.26-.31,0a2.22,2.22,0,0,0-1.91.79l-.2.23-.07-.3a2.22,2.22,0,0,0-1.34-1.57l-.28-.11Z"/><path class="cls-24" d="M294,349.77l-3.37-1.35-.8-3.54a2.2,2.2,0,0,0-.8-1.24q.41-.13.82-.29h0a8.82,8.82,0,0,0,2-1.15,2.22,2.22,0,0,0,.85-2.05,8.72,8.72,0,0,0-13.76-6,8.7,8.7,0,0,0-6.63,12,8.85,8.85,0,0,0,1.15,2,2.22,2.22,0,0,0,1.76.87l.29,0a8.78,8.78,0,0,0,2.14-.56,2.2,2.2,0,0,0,.31,1.4l1.94,3.07-1.43,3.34a2.22,2.22,0,0,0,2.58,3l3.52-.89,2.73,2.39a2.22,2.22,0,0,0,3.67-1.52l.24-3.63,3.12-1.86a2.22,2.22,0,0,0-.31-4Zm-17.73-5.61a4.36,4.36,0,0,1,2.19-5.28A4.36,4.36,0,0,1,276.32,344.16Zm11.59-4.8a4.36,4.36,0,0,1-5.28-2.19A4.36,4.36,0,0,1,287.91,339.36Zm-7.3,7.1a8.82,8.82,0,0,0,2.07-3.34,8.82,8.82,0,0,0,3.3.86l-2.3,2.76Zm7.36,5.92a2.22,2.22,0,0,0-1.08,1.76l0,.31-.23-.2a2.22,2.22,0,0,0-2-.48l-.3.08.12-.28a2.22,2.22,0,0,0-.16-2.06l-.16-.26.3,0a2.2,2.2,0,0,0,1.91-.79l.2-.23.07.3a2.22,2.22,0,0,0,1.34,1.57l.28.11Z"/><path class="cls-25" d="M136.4,289.34c.07.19.13.39.21.58a8.79,8.79,0,0,0,1.15,2,2.22,2.22,0,0,0,1.76.87l.29,0a8.84,8.84,0,0,0,2.21-.59,8.71,8.71,0,0,0,3.8-13.17,8.76,8.76,0,0,0-14-5.48,2.22,2.22,0,0,0-.85,2.05,8.82,8.82,0,0,0,.59,2.21h0c0,.11.11.2.16.31a2.2,2.2,0,0,0-1.58.29l-3.07,1.94-3.34-1.43a2.22,2.22,0,0,0-3,2.58l.89,3.52-2.39,2.73a2.22,2.22,0,0,0,1.52,3.67l3.62.24,1.86,3.12a2.22,2.22,0,0,0,1.9,1.08h.18a2.22,2.22,0,0,0,1.89-1.39l1.35-3.37,3.54-.8A2.2,2.2,0,0,0,136.4,289.34Zm-7-2.35a2.22,2.22,0,0,0-1.57,1.34l-.11.28-.16-.26a2.22,2.22,0,0,0-1.76-1.08l-.31,0,.2-.23a2.22,2.22,0,0,0,.48-2l-.08-.3.28.12a2.21,2.21,0,0,0,2.06-.16l.26-.16,0,.3a2.21,2.21,0,0,0,.79,1.91l.24.2Zm13.37-4.33a4.36,4.36,0,0,1-2.19,5.28,4.36,4.36,0,0,1,2.19-5.28Zm-1.71-4.12a4.36,4.36,0,0,1-5.28-2.19A4.36,4.36,0,0,1,141.09,278.55Zm-7.55,2.1a8.8,8.8,0,0,0,3.31,2.06c-.08.16-.16.32-.23.49a8.77,8.77,0,0,0-.66,3.14l-2.73-2.27Z"/><path class="cls-26" d="M343.61,190.9q-.13-.41-.29-.82a8.79,8.79,0,0,0-1.15-2,2.21,2.21,0,0,0-2.05-.85,8.84,8.84,0,0,0-2.21.59A8.71,8.71,0,0,0,334.1,201a8.71,8.71,0,0,0,.52,1.87,8.77,8.77,0,0,0,13.47,3.61,2.22,2.22,0,0,0,.85-2.05,8.83,8.83,0,0,0-.56-2.14l.22,0a2.22,2.22,0,0,0,1.18-.34l3.07-1.94,3.34,1.43a2.22,2.22,0,0,0,3-2.58l-.89-3.52,2.4-2.73a2.22,2.22,0,0,0-1.52-3.67l-3.63-.24-1.86-3.12a2.22,2.22,0,0,0-4,.31l-1.35,3.37-3.54.8A2.2,2.2,0,0,0,343.61,190.9Zm6.89,2.46a2.22,2.22,0,0,0,1.57-1.34l.11-.28.16.26a2.22,2.22,0,0,0,1.76,1.08l.31,0-.2.23a2.21,2.21,0,0,0-.48,2l.08.3-.28-.12a2.22,2.22,0,0,0-2.06.16l-.26.16,0-.3a2.21,2.21,0,0,0-.79-1.91l-.24-.2Zm-13.37,4a4.36,4.36,0,0,1,2.19-5.28,4.36,4.36,0,0,1-2.19,5.28Zm1.71,4.12a4.36,4.36,0,0,1,5.28,2.19A4.36,4.36,0,0,1,338.84,201.45Zm7.59-2.1a8.82,8.82,0,0,0-3.34-2.07c.08-.16.16-.32.23-.48A8.78,8.78,0,0,0,344,194l2.75,2.29Z"/><path class="cls-27" d="M121.51,195.27l-.89,3.52a2.22,2.22,0,0,0,3,2.58l3.34-1.43,3.07,1.94a1.95,1.95,0,0,0,1.55.29l0,0a8.82,8.82,0,0,0-.59,2.21,2.22,2.22,0,0,0,.85,2.05,8.72,8.72,0,0,0,14-5.48,8.76,8.76,0,0,0-6-13.76,2.21,2.21,0,0,0-2.05.85,8.79,8.79,0,0,0-1.15,2,9,9,0,0,0-.3.85A2.2,2.2,0,0,0,135,190l-3.54-.8-1.35-3.37a2.22,2.22,0,0,0-4-.31l-1.86,3.12-3.63.24a2.22,2.22,0,0,0-1.52,3.67Zm19.09-3.22a4.36,4.36,0,0,1,2.19,5.28,4.36,4.36,0,0,1-2.19-5.28Zm.48,9.4a4.36,4.36,0,0,1-5.28,2.19A4.36,4.36,0,0,1,141.09,201.45Zm-5.18-7.59.05-.06a8.77,8.77,0,0,0,.66,3c.07.17.15.32.23.48a8.81,8.81,0,0,0-3.43,2.17l-.3-3.27ZM125.72,193a2.22,2.22,0,0,0,1.76-1.08l.16-.26.11.28a2.22,2.22,0,0,0,1.57,1.34l.3.07-.24.2a2.22,2.22,0,0,0-.79,1.91l0,.3-.26-.16a2.22,2.22,0,0,0-2.06-.16l-.28.12.07-.3a2.21,2.21,0,0,0-.48-2l-.2-.23Z"/><path class="cls-28" d="M358.17,285l.89-3.52a2.22,2.22,0,0,0-3-2.58l-3.34,1.43-3.07-1.94a2.2,2.2,0,0,0-1.42-.31c0-.1.1-.18.14-.28a8.83,8.83,0,0,0,.59-2.21,2.22,2.22,0,0,0-.85-2.05,8.77,8.77,0,0,0-13.46,3.61,8.68,8.68,0,0,0-.52,1.87,8.76,8.76,0,0,0,6,13.76l.29,0a2.22,2.22,0,0,0,1.76-.87,8.79,8.79,0,0,0,1.15-2c.06-.15.11-.3.16-.46a2.2,2.2,0,0,0,1.22.79l3.54.8,1.35,3.37a2.22,2.22,0,0,0,1.89,1.39h.18a2.22,2.22,0,0,0,1.9-1.08l1.86-3.12,3.62-.24a2.22,2.22,0,0,0,1.52-3.67Zm-18.84,3a4.36,4.36,0,0,1-2.19-5.28,4.36,4.36,0,0,1,2.19,5.28Zm-.48-9.4a4.36,4.36,0,0,1,5.28-2.19A4.36,4.36,0,0,1,338.84,278.55Zm5.13,7.67a8.78,8.78,0,0,0-.66-3c-.07-.17-.15-.33-.23-.49a8.81,8.81,0,0,0,3.18-1.93l.3,3.28Zm10,1.05a2.22,2.22,0,0,0-1.76,1.08l-.16.26-.11-.28a2.22,2.22,0,0,0-1.57-1.34l-.3-.07.24-.2a2.21,2.21,0,0,0,.79-1.91l0-.3.26.16a2.22,2.22,0,0,0,2.06.16l.28-.12-.08.3a2.22,2.22,0,0,0,.48,2l.2.23Z"/><path class="cls-29" d="M277.09,145.34a8.75,8.75,0,0,0,1.87.52,8.76,8.76,0,0,0,13.76-6,2.22,2.22,0,0,0-.85-2.05,8.82,8.82,0,0,0-2-1.15h0l-.46-.16a2.2,2.2,0,0,0,.79-1.22l.8-3.54,3.37-1.35a2.22,2.22,0,0,0,.31-4l-3.12-1.86-.24-3.63a2.22,2.22,0,0,0-3.67-1.52l-2.73,2.39-3.52-.89a2.22,2.22,0,0,0-2.58,3l1.43,3.34-1.94,3.07a2.19,2.19,0,0,0-.31,1.41l-.28-.13a8.78,8.78,0,0,0-2.21-.59,2.22,2.22,0,0,0-2.05.85,8.77,8.77,0,0,0,3.61,13.46Zm5.54-2.52a4.36,4.36,0,0,1,5.28-2.19A4.36,4.36,0,0,1,282.63,142.83Zm2-14.18a2.22,2.22,0,0,0,.16-2.06l-.12-.28.3.08a2.22,2.22,0,0,0,2-.48l.23-.2,0,.31a2.22,2.22,0,0,0,1.08,1.76l.26.16-.28.11A2.22,2.22,0,0,0,287,129.6l-.07.3-.2-.24a2.22,2.22,0,0,0-1.7-.8h-.2l-.3,0ZM284,133.4l2.16,2.6a8.82,8.82,0,0,0-3.51.88,8.82,8.82,0,0,0-1.92-3.18Zm-7.71,2.44a4.36,4.36,0,0,1,2.19,5.28A4.36,4.36,0,0,1,276.32,135.84Z"/><path class="cls-30" d="M202.84,334.66a8.75,8.75,0,0,0-1.87-.52,8.76,8.76,0,0,0-13.76,6,2.22,2.22,0,0,0,.85,2,8.81,8.81,0,0,0,2,1.15h0a8.92,8.92,0,0,0,.85.3A2.21,2.21,0,0,0,190,345l-.8,3.54-3.37,1.35a2.22,2.22,0,0,0-.31,4l3.12,1.86.24,3.62a2.22,2.22,0,0,0,3.67,1.52l2.73-2.39,3.52.89a2.22,2.22,0,0,0,2.58-3L199.91,353l1.94-3.07a2.2,2.2,0,0,0,.29-1.55l0,0h0a8.78,8.78,0,0,0,2.21.59l.29,0a2.22,2.22,0,0,0,1.76-.87,8.77,8.77,0,0,0-3.61-13.47Zm-5.54,2.52a4.36,4.36,0,0,1-5.28,2.19A4.37,4.37,0,0,1,197.3,337.17Zm-1.77,14.43a2.22,2.22,0,0,0-.16,2.06l.12.28-.3-.08a2.22,2.22,0,0,0-2,.48l-.23.2,0-.3a2.22,2.22,0,0,0-1.08-1.76l-.26-.16.28-.11a2.22,2.22,0,0,0,1.34-1.57l.07-.3.2.23a2.23,2.23,0,0,0,1.91.79l.31,0Zm.61-4.75-2.32-2.79-.06-.05a8.78,8.78,0,0,0,3-.66l.48-.23a8.82,8.82,0,0,0,2.17,3.43Zm7.46-2.69a4.36,4.36,0,0,1-2.19-5.28A4.36,4.36,0,0,1,203.61,344.16Z"/><path class="cls-31" d="M388.62,237.86c-1.92-1.5-9.19-7.09-17.68-12.63C357.43,216.44,347.36,212,341,212A28,28,0,1,0,341,268c6.35,0,16.41-4.46,29.92-13.26,9.87-6.43,18.11-13,18.19-13s.1-.1.15-.15a2.2,2.2,0,0,0-.66-3.72Zm-71.07,2.23a4.36,4.36,0,1,1,4.36,4.36A4.36,4.36,0,0,1,317.54,240.1Zm57.95,2.19h0l5.67-.07c-11.2,8.3-30.82,21.37-40.17,21.37A23.63,23.63,0,0,1,319,248.37a8.68,8.68,0,0,0,7.49-.77,6.51,6.51,0,0,0,1.71,4.08c1.81,1.81,4.46,1.91,9.53,1.91h2a2.22,2.22,0,0,0,0-4.43h-1.11c-3.76,0-6.71,0-7.33-.61s-.62-3.58-.61-7.33V239c0-3.75,0-6.71.61-7.33s3.57-.61,7.33-.61h1.11a2.22,2.22,0,0,0,0-4.43h-1.11c-5.68,0-8.55,0-10.47,1.91a6.51,6.51,0,0,0-1.71,4.08,8.68,8.68,0,0,0-7.58-.74A23.63,23.63,0,0,1,341,216.41c9.35,0,29,13.08,40.19,21.38l-5.73.07a2.22,2.22,0,0,0,0,4.43Z"/><path class="cls-32" d="M188.33,291.64a28,28,0,0,0-39.63,0c-10.51,10.51-15.23,50.9-15.43,52.61a2.3,2.3,0,0,0,3.08,2.38c5.43-.66,42.05-5.43,52-15.36A28.06,28.06,0,0,0,188.33,291.64Zm-6.3,2a4.36,4.36,0,1,1-3.07,7.44l0,0a4.36,4.36,0,0,1,3.09-7.43Zm-40.28,47.74,4-4.14a2.22,2.22,0,0,0-3.17-3.1l-4.1,4.19c2-13.77,6.69-37,13.31-43.6A23.54,23.54,0,0,1,178.36,290a8.78,8.78,0,0,0-2.55,1.77h0A8.72,8.72,0,0,0,173.5,296a6.52,6.52,0,0,0-4.09-1.68c-2.72,0-4.74,2-8.76,6.05l-.78.78a2.22,2.22,0,1,0,3.14,3.14l.79-.79c2.65-2.65,4.74-4.75,5.62-4.75s3,2.1,5.62,4.75l.78.78h0l.78.78c2.65,2.65,4.75,4.74,4.75,5.62s-2.1,3-4.75,5.62l-.79.79a2.22,2.22,0,1,0,3.14,3.14l.78-.78c4-4,6.05-6,6.05-8.76a6.52,6.52,0,0,0-1.67-4.08,8.7,8.7,0,0,0,5.88-4.82,23.61,23.61,0,0,1-4.79,26.39C178.59,334.73,155.54,339.36,141.74,341.42Z"/></svg>